<svg xmlns="http://www.w3.org/2000/svg" version="1.1" xmlns:xlink="http://www.w3.org/1999/xlink" xmlns:svgjs="http://svgjs.dev/svgjs" width="1500" height="1500" viewBox="0 0 1500 1500"><rect width="1500" height="1500" fill="#000000"></rect><g transform="matrix(0.6666666666666666,0,0,0.6666666666666666,250.5545492932804,403.61403508771934)"><svg viewBox="0 0 356 247" data-background-color="#8dbdff" preserveAspectRatio="xMidYMid meet" height="1040" width="1500" xmlns="http://www.w3.org/2000/svg" xmlns:xlink="http://www.w3.org/1999/xlink"><g id="tight-bounds" transform="matrix(1,0,0,1,-0.19741954840782228,-0.09999999999999432)"><svg viewBox="0 0 356.39483909681564 247.2" height="247.2" width="356.39483909681564"><g><svg viewBox="0 0 395.52 274.337709961731" height="247.2" width="356.39483909681564"><g transform="matrix(1,0,0,1,0,165.80816883236753)"><svg viewBox="0 0 395.52 108.52954112936347" height="108.52954112936347" width="395.52"><g id="textblocktransform"><svg viewBox="0 0 395.52 108.52954112936347" height="108.52954112936347" width="395.52" id="textblock"><g><svg viewBox="0 0 395.52 67.01377095336758" height="67.01377095336758" width="395.52"><g transform="matrix(1,0,0,1,0,0)"><svg width="395.52" viewBox="2.15 -36.45999999577501 220.18625 37.30999999577501" height="67.01377095336758" data-palette-color="#374151"><path d="M3 0.15L3 0.15Q2.55 0.15 2.35-0.2 2.15-0.55 2.15-0.95L2.15-0.95Q2.2-1.8 2.55-1.9 2.9-2 3.4-2L3.4-2Q5-2 5.65-2.58 6.3-3.15 6.48-4.03 6.65-4.9 6.65-5.85L6.65-5.85 6.65-25.7Q6.65-26.65 6.48-27.53 6.3-28.4 5.65-28.98 5-29.55 3.4-29.55L3.4-29.55Q2.9-29.55 2.55-29.65 2.2-29.75 2.15-30.6L2.15-30.6Q2.15-31 2.35-31.35 2.55-31.7 3-31.7L3-31.7Q4.65-31.65 6.05-31.6 7.45-31.55 8.95-31.55L8.95-31.55 16.75-31.55Q21.55-31.55 25.45-29.65 29.35-27.75 31.65-24.2 33.95-20.65 33.95-15.6L33.95-15.6Q33.95-11.6 32.4-8.65 30.85-5.7 28.25-3.78 25.65-1.85 22.43-0.93 19.2 0 15.85 0L15.85 0 8.95 0Q7.45 0 6.05 0.03 4.65 0.05 3 0.15ZM16.6-1.85L16.6-1.85Q20.65-1.85 23.15-3.58 25.65-5.3 26.78-8.4 27.9-11.5 27.9-15.6L27.9-15.6Q27.9-19.7 26.45-22.9 25-26.1 22.23-27.93 19.45-29.75 15.5-29.75L15.5-29.75Q14.7-29.75 13.4-29.73 12.1-29.7 11.6-29.7L11.6-29.7 11.6-5.25Q11.6-3.25 12.83-2.55 14.05-1.85 16.6-1.85ZM44.4 0.6L44.4 0.6Q41.35 0.6 39.52-1.15 37.7-2.9 37.7-5.35L37.7-5.35Q37.7-7.9 39.02-9.35 40.35-10.8 42.52-11.5 44.7-12.2 47.27-12.45 49.85-12.7 52.3-12.85L52.3-12.85 52.3-16.8Q52.3-19.15 51.12-20.48 49.95-21.8 47.15-21.8L47.15-21.8Q45.75-21.8 44.52-20.9 43.3-20 43.3-18.3L43.3-18.3Q43.3-17.5 43.7-16.95 44.1-16.4 44.5-16.1 44.9-15.8 44.9-15.7L44.9-15.7Q44.9-15.5 44.32-14.98 43.75-14.45 42.75-14.45L42.75-14.45Q41.2-14.45 40.35-15.6 39.5-16.75 39.5-18.15L39.5-18.15Q39.5-20.05 40.67-21.15 41.85-22.25 43.7-22.75 45.55-23.25 47.45-23.25L47.45-23.25Q49.7-23.25 51.82-22.7 53.95-22.15 55.32-20.6 56.7-19.05 56.7-15.95L56.7-15.95 56.7-4.3Q56.75-3.8 56.95-3.1 57.15-2.4 57.72-1.88 58.3-1.35 59.3-1.35L59.3-1.35Q59.65-1.35 59.85-1.23 60.05-1.1 60.05-0.55L60.05-0.55Q60.05-0.1 59.55 0.15 59.05 0.4 58.4 0.5 57.75 0.6 57.3 0.6L57.3 0.6Q55.45 0.6 54-0.48 52.55-1.55 52.3-3.45L52.3-3.45Q51.2-1.45 49.02-0.43 46.85 0.6 44.4 0.6ZM46-2.1L46-2.1Q47.7-2.1 49.12-2.95 50.55-3.8 51.42-5.28 52.3-6.75 52.3-8.55L52.3-8.55 52.3-11.4Q47.15-11.05 44.95-9.75 42.75-8.45 42.75-5.5L42.75-5.5Q42.75-2.1 46-2.1ZM71.5 0.85L71.5 0.85Q70 0.85 68.64 0.1 67.3-0.65 66.42-2.2 65.55-3.75 65.55-6.1L65.55-6.1 65.55-20.8 62.65-20.7Q62.3-20.7 62.12-20.98 61.95-21.25 61.95-21.6L61.95-21.6Q61.95-22.6 62.65-22.75L62.65-22.75Q64.5-23.1 65.44-23.93 66.39-24.75 66.92-25.9 67.44-27.05 67.89-28.4L67.89-28.4Q68.05-28.8 68.34-28.93 68.64-29.05 69-29.05L69-29.05Q69.3-29.05 69.67-28.9 70.05-28.75 70.05-28.35L70.05-28.35 69.69-22.65 75.55-23Q76-23.05 76.14-22.75 76.3-22.45 76.3-22.05L76.3-22.05Q76.3-21.55 76.12-21.05 75.94-20.55 75.69-20.55L75.69-20.55 70.09-20.7 70.09-5.5Q70.09-4.05 70.72-2.85 71.34-1.65 73-1.65L73-1.65Q73.55-1.65 74.25-1.75 74.94-1.85 75.75-2.2L75.75-2.2Q75.94-2.3 76.14-2.38 76.34-2.45 76.55-2.45L76.55-2.45Q76.94-2.45 77.14-2.13 77.34-1.8 77.5-1.45L77.5-1.45Q77.64-1 77.25-0.75L77.25-0.75Q75.69 0.25 74.39 0.55 73.09 0.85 71.5 0.85ZM88.04 0.6L88.04 0.6Q84.99 0.6 83.17-1.15 81.34-2.9 81.34-5.35L81.34-5.35Q81.34-7.9 82.67-9.35 83.99-10.8 86.17-11.5 88.34-12.2 90.92-12.45 93.49-12.7 95.94-12.85L95.94-12.85 95.94-16.8Q95.94-19.15 94.77-20.48 93.59-21.8 90.79-21.8L90.79-21.8Q89.39-21.8 88.17-20.9 86.94-20 86.94-18.3L86.94-18.3Q86.94-17.5 87.34-16.95 87.74-16.4 88.14-16.1 88.54-15.8 88.54-15.7L88.54-15.7Q88.54-15.5 87.97-14.98 87.39-14.45 86.39-14.45L86.39-14.45Q84.84-14.45 83.99-15.6 83.14-16.75 83.14-18.15L83.14-18.15Q83.14-20.05 84.32-21.15 85.49-22.25 87.34-22.75 89.19-23.25 91.09-23.25L91.09-23.25Q93.34-23.25 95.47-22.7 97.59-22.15 98.97-20.6 100.34-19.05 100.34-15.95L100.34-15.95 100.34-4.3Q100.39-3.8 100.59-3.1 100.79-2.4 101.37-1.88 101.94-1.35 102.94-1.35L102.94-1.35Q103.29-1.35 103.49-1.23 103.69-1.1 103.69-0.55L103.69-0.55Q103.69-0.1 103.19 0.15 102.69 0.4 102.04 0.5 101.39 0.6 100.94 0.6L100.94 0.6Q99.09 0.6 97.64-0.48 96.19-1.55 95.94-3.45L95.94-3.45Q94.84-1.45 92.67-0.43 90.49 0.6 88.04 0.6ZM89.64-2.1L89.64-2.1Q91.34-2.1 92.77-2.95 94.19-3.8 95.07-5.28 95.94-6.75 95.94-8.55L95.94-8.55 95.94-11.4Q90.79-11.05 88.59-9.75 86.39-8.45 86.39-5.5L86.39-5.5Q86.39-2.1 89.64-2.1ZM117.44 0.6L117.44 0.6Q112.29 0.6 109.41-2.68 106.54-5.95 106.54-11.35L106.54-11.35Q106.69-14.8 108.27-17.45 109.84-20.1 112.46-21.63 115.09-23.15 118.29-23.25L118.29-23.25Q120.04-23.25 121.86-22.83 123.69-22.4 124.91-21.28 126.14-20.15 126.14-18.05L126.14-18.05Q126.14-16.6 125.24-15.38 124.34-14.15 122.74-14.15L122.74-14.15Q121.64-14.15 121.04-14.7 120.44-15.25 120.44-15.5L120.44-15.5Q120.44-15.6 120.86-15.93 121.29-16.25 121.69-16.82 122.09-17.4 122.09-18.25L122.09-18.25Q122.09-19.85 120.94-20.6 119.79-21.35 118.34-21.4L118.34-21.4Q116.14-21.4 114.81-20.5 113.49-19.6 112.79-18.13 112.09-16.65 111.86-14.9 111.64-13.15 111.64-11.5L111.64-11.5Q111.64-8.75 112.49-6.58 113.34-4.4 114.89-3.15 116.44-1.9 118.59-1.9L118.59-1.9Q120.79-1.9 122.29-2.85 123.79-3.8 125.04-5.65L125.04-5.65Q125.39-6.15 126.09-5.75L126.09-5.75Q126.44-5.55 126.59-5.2 126.74-4.85 126.49-4.5L126.49-4.5Q124.84-2.15 122.39-0.78 119.94 0.6 117.44 0.6ZM128.89 0.15L128.89 0.15Q128.54 0.15 128.31-0.18 128.09-0.5 128.09-0.85L128.09-0.85Q128.14-1.6 128.46-1.68 128.79-1.75 129.24-1.75L129.24-1.75Q130.64-1.75 131.16-2.23 131.69-2.7 131.76-3.5 131.84-4.3 131.84-5.15L131.84-5.15 131.84-29.55Q131.84-30.45 131.76-31.23 131.69-32 131.19-32.48 130.69-32.95 129.29-32.95L129.29-32.95Q128.84-32.95 128.46-33.08 128.09-33.2 128.09-33.95L128.09-33.95Q128.09-34.7 128.89-34.85L128.89-34.85Q131.19-35.2 132.41-35.55 133.64-35.9 134.29-36.15 134.94-36.4 135.44-36.45L135.44-36.45Q135.84-36.5 136.11-36.3 136.39-36.1 136.39-35.5L136.39-35.5 136.39-5.15Q136.39-4.3 136.46-3.5 136.54-2.7 137.06-2.23 137.59-1.75 138.99-1.75L138.99-1.75Q139.44-1.75 139.76-1.68 140.09-1.6 140.14-0.85L140.14-0.85Q140.14-0.5 139.94-0.18 139.74 0.15 139.34 0.15L139.34 0.15Q137.89 0.05 136.66 0.03 135.44 0 134.09 0L134.09 0Q132.74 0 131.54 0.03 130.34 0.05 128.89 0.15ZM143.69 0.15L143.69 0.15Q143.34 0.15 143.11-0.18 142.89-0.5 142.89-0.85L142.89-0.85Q142.99-1.6 143.29-1.68 143.59-1.75 144.09-1.75L144.09-1.75Q145.49-1.75 145.99-2.23 146.49-2.7 146.56-3.5 146.64-4.3 146.64-5.15L146.64-5.15 146.64-16.6Q146.64-17.5 146.56-18.28 146.49-19.05 145.99-19.53 145.49-20 144.09-20L144.09-20Q143.64-20 143.26-20.13 142.89-20.25 142.89-21L142.89-21Q142.89-21.75 143.69-21.9L143.69-21.9Q145.99-22.25 147.21-22.6 148.44-22.95 149.09-23.2 149.74-23.45 150.24-23.5L150.24-23.5Q150.64-23.55 150.91-23.35 151.19-23.15 151.19-22.55L151.19-22.55 151.19-5.15Q151.19-4.3 151.26-3.5 151.34-2.7 151.86-2.23 152.39-1.75 153.79-1.75L153.79-1.75Q154.24-1.75 154.56-1.68 154.89-1.6 154.94-0.85L154.94-0.85Q154.94-0.5 154.74-0.18 154.54 0.15 154.14 0.15L154.14 0.15Q152.69 0.05 151.46 0.03 150.24 0 148.89 0L148.89 0Q147.54 0 146.34 0.03 145.14 0.05 143.69 0.15ZM148.64-29.05L148.64-29.05Q147.24-29.05 146.29-29.93 145.34-30.8 145.34-32.1L145.34-32.1Q145.34-33.25 146.49-34.15 147.64-35.05 149.09-35.05L149.09-35.05Q150.34-35.05 151.14-34.18 151.94-33.3 151.94-31.95L151.94-31.95Q151.94-30.75 150.99-29.9 150.04-29.05 148.64-29.05ZM158.23 0.15L158.23 0.15Q157.88 0.15 157.66-0.18 157.43-0.5 157.43-0.85L157.43-0.85Q157.53-1.6 157.83-1.68 158.13-1.75 158.63-1.75L158.63-1.75Q160.03-1.75 160.53-2.23 161.03-2.7 161.11-3.5 161.18-4.3 161.18-5.15L161.18-5.15 161.18-16.6Q161.18-17.5 161.11-18.28 161.03-19.05 160.53-19.53 160.03-20 158.63-20L158.63-20Q158.18-20 157.81-20.13 157.43-20.25 157.43-21L157.43-21Q157.43-21.75 158.23-21.9L158.23-21.9Q160.53-22.25 161.76-22.6 162.98-22.95 163.61-23.2 164.23-23.45 164.73-23.5L164.73-23.5Q165.13-23.55 165.41-23.35 165.68-23.15 165.68-22.55L165.68-22.55 165.68-19.4 165.83-19.4Q166.83-20.35 167.88-21.23 168.93-22.1 170.36-22.68 171.78-23.25 173.88-23.25L173.88-23.25Q177.28-23.25 179.28-21.2 181.28-19.15 181.28-15.8L181.28-15.8 181.28-5.15Q181.28-4.3 181.36-3.5 181.43-2.7 181.96-2.23 182.48-1.75 183.88-1.75L183.88-1.75Q184.33-1.75 184.66-1.68 184.98-1.6 185.03-0.85L185.03-0.85Q185.03-0.5 184.83-0.18 184.63 0.15 184.23 0.15L184.23 0.15Q182.78 0.05 181.56 0.03 180.33 0 178.98 0L178.98 0Q177.63 0 176.43 0.03 175.23 0.05 173.78 0.15L173.78 0.15Q173.43 0.15 173.21-0.18 172.98-0.5 172.98-0.85L172.98-0.85Q173.03-1.6 173.36-1.68 173.68-1.75 174.13-1.75L174.13-1.75Q175.53-1.75 176.06-2.23 176.58-2.7 176.66-3.5 176.73-4.3 176.73-5.15L176.73-5.15 176.73-15.75Q176.73-17.4 176.01-18.45 175.28-19.5 174.18-20 173.08-20.5 171.93-20.5L171.93-20.5Q170.23-20.5 168.93-19.88 167.63-19.25 166.83-18.45 166.03-17.65 165.73-17.05L165.73-17.05 165.73-5.15Q165.73-4.3 165.81-3.5 165.88-2.7 166.41-2.23 166.93-1.75 168.33-1.75L168.33-1.75Q168.78-1.75 169.11-1.68 169.43-1.6 169.48-0.85L169.48-0.85Q169.48-0.5 169.28-0.18 169.08 0.15 168.68 0.15L168.68 0.15Q167.23 0.05 166.01 0.03 164.78 0 163.43 0L163.43 0Q162.08 0 160.88 0.03 159.68 0.05 158.23 0.15ZM188.18 0.15L188.18 0.15Q187.83 0.15 187.61-0.18 187.38-0.5 187.38-0.85L187.38-0.85Q187.48-1.6 187.78-1.68 188.08-1.75 188.58-1.75L188.58-1.75Q189.98-1.75 190.48-2.23 190.98-2.7 191.06-3.5 191.13-4.3 191.13-5.15L191.13-5.15 191.13-16.6Q191.13-17.5 191.06-18.28 190.98-19.05 190.48-19.53 189.98-20 188.58-20L188.58-20Q188.13-20 187.76-20.13 187.38-20.25 187.38-21L187.38-21Q187.38-21.75 188.18-21.9L188.18-21.9Q190.48-22.25 191.71-22.6 192.93-22.95 193.58-23.2 194.23-23.45 194.73-23.5L194.73-23.5Q195.13-23.55 195.41-23.35 195.68-23.15 195.68-22.55L195.68-22.55 195.68-5.15Q195.68-4.3 195.76-3.5 195.83-2.7 196.36-2.23 196.88-1.75 198.28-1.75L198.28-1.75Q198.73-1.75 199.06-1.68 199.38-1.6 199.43-0.85L199.43-0.85Q199.43-0.5 199.23-0.18 199.03 0.15 198.63 0.15L198.63 0.15Q197.18 0.05 195.96 0.03 194.73 0 193.38 0L193.38 0Q192.03 0 190.83 0.03 189.63 0.05 188.18 0.15ZM193.13-29.05L193.13-29.05Q191.73-29.05 190.78-29.93 189.83-30.8 189.83-32.1L189.83-32.1Q189.83-33.25 190.98-34.15 192.13-35.05 193.58-35.05L193.58-35.05Q194.83-35.05 195.63-34.18 196.43-33.3 196.43-31.95L196.43-31.95Q196.43-30.75 195.48-29.9 194.53-29.05 193.13-29.05ZM213.13 0.6L213.13 0.6Q207.98 0.6 205.1-2.68 202.23-5.95 202.23-11.35L202.23-11.35Q202.38-14.8 203.95-17.45 205.53-20.1 208.15-21.63 210.78-23.15 213.98-23.25L213.98-23.25Q215.73-23.25 217.55-22.83 219.38-22.4 220.6-21.28 221.83-20.15 221.83-18.05L221.83-18.05Q221.83-16.6 220.93-15.38 220.03-14.15 218.43-14.15L218.43-14.15Q217.33-14.15 216.73-14.7 216.13-15.25 216.13-15.5L216.13-15.5Q216.13-15.6 216.55-15.93 216.98-16.25 217.38-16.82 217.78-17.4 217.78-18.25L217.78-18.25Q217.78-19.85 216.63-20.6 215.48-21.35 214.03-21.4L214.03-21.4Q211.83-21.4 210.5-20.5 209.18-19.6 208.48-18.13 207.78-16.65 207.55-14.9 207.33-13.15 207.33-11.5L207.33-11.5Q207.33-8.75 208.18-6.58 209.03-4.4 210.58-3.15 212.13-1.9 214.28-1.9L214.28-1.9Q216.48-1.9 217.98-2.85 219.48-3.8 220.73-5.65L220.73-5.65Q221.08-6.15 221.78-5.75L221.78-5.75Q222.13-5.55 222.28-5.2 222.43-4.85 222.18-4.5L222.18-4.5Q220.53-2.15 218.08-0.78 215.63 0.6 213.13 0.6Z" opacity="1" transform="matrix(1,0,0,1,0,0)" fill="#ffffff" class="wordmark-text-0" data-fill-palette-color="primary" id="text-0"></path></svg></g></svg></g><g transform="matrix(1,0,0,1,75.54432,82.8341139449548)"><svg viewBox="0 0 244.43135999999998 25.69542718440868" height="25.69542718440868" width="244.43135999999998"><g transform="matrix(1,0,0,1,0,0)"><svg width="244.43135999999998" viewBox="0.8 -34.8 338.61 35.599999999999994" height="25.69542718440868" data-palette-color="#374151"><path d="M10.35 0.65L10.35 0.65Q6.1 0.65 3.45-0.7 0.8-2.05 0.8-4.2L0.8-4.2Q0.8-5.85 1.05-6.55 1.3-7.25 1.9-7.25L1.9-7.25Q2.3-7.25 3.15-6.65 4-6.05 5.23-5.3 6.45-4.55 7.98-3.95 9.5-3.35 11.3-3.35L11.3-3.35Q13.9-3.35 15.53-4.48 17.15-5.6 17.15-7.95L17.15-7.95Q17.15-10.2 16.1-11.35 15.05-12.5 12.95-13.85L12.95-13.85 9.8-15.85Q8.1-16.95 6.7-18.1 5.3-19.25 4.45-20.88 3.6-22.5 3.6-25L3.6-25Q3.6-28.1 5.2-30.3 6.8-32.5 9.6-33.65 12.4-34.8 16-34.8L16-34.8Q19.35-34.8 21-34.38 22.65-33.95 23.18-33.2 23.7-32.45 23.7-31.45L23.7-31.45Q23.7-30.05 23.3-29.33 22.9-28.6 22.45-28.6L22.45-28.6Q22.05-28.6 21.55-28.85 21.05-29.1 20.15-29.5L20.15-29.5Q19.45-29.85 17.93-30.33 16.4-30.8 14.75-30.8L14.75-30.8Q12.6-30.8 11.13-29.7 9.65-28.6 9.65-26.4L9.65-26.4Q9.65-24.35 10.75-23.18 11.85-22 13.7-21.1L13.7-21.1 16.45-19.8Q18.4-18.9 20.08-17.8 21.75-16.7 22.78-14.98 23.8-13.25 23.8-10.4L23.8-10.4Q23.8-5.1 20.15-2.23 16.5 0.65 10.35 0.65ZM31.9 0.8L31.9 0.8Q29.5 0.8 28.52-0.6 27.55-2 27.9-5L27.9-5 29.85-20.25 28.25-20.25Q27.5-20.25 27.5-21.05L27.5-21.05Q27.5-21.55 28.17-22.5 28.85-23.45 29.9-24.6 30.95-25.75 32.07-26.8 33.2-27.85 34.15-28.53 35.1-29.2 35.6-29.2L35.6-29.2Q36.15-29.2 36.35-28.78 36.55-28.35 36.45-27.7L36.45-27.7 36-23.75 41.6-23.75Q42.35-23.75 42.47-23.5 42.6-23.25 42.4-22.7L42.4-22.7Q41.8-21 41.27-20.63 40.75-20.25 39.35-20.25L39.35-20.25 35.35-20.25 34.1-9.55Q34-8.6 33.92-7.75 33.85-6.9 33.85-6.2L33.85-6.2Q33.85-5.05 34.4-4.58 34.95-4.1 36.2-4.1L36.2-4.1Q37.4-4.1 38.27-4.6 39.15-5.1 39.5-5.1L39.5-5.1Q39.9-5.1 39.9-4.6L39.9-4.6Q39.9-4.1 39.37-3.2 38.85-2.3 37.82-1.38 36.8-0.45 35.3 0.18 33.8 0.8 31.9 0.8ZM48.99 0.8L45.49 0.8Q44.64 0.8 44.39-0.18 44.14-1.15 44.14-2.2L44.14-2.2Q44.14-4 44.32-5.4 44.49-6.8 44.7-8.5L44.7-8.5 46.49-24.55 49.99-24.55Q50.99-24.55 51.3-23.45 51.59-22.35 51.59-20.95L51.59-20.95Q51.59-20.25 51.49-19.48 51.39-18.7 51.2-17.1L51.2-17.1 50.24-8.95Q49.95-6.35 49.7-4.6 49.45-2.85 49.3-1.6 49.14-0.35 48.99 0.8L48.99 0.8ZM49.89-27.4L49.89-27.4Q48.49-27.4 47.47-28.35 46.45-29.3 46.45-30.85L46.45-30.85Q46.45-32.7 47.64-33.73 48.84-34.75 50.39-34.75L50.39-34.75Q51.84-34.75 52.82-33.9 53.8-33.05 53.8-31.35L53.8-31.35Q53.8-29.65 52.64-28.53 51.49-27.4 49.89-27.4ZM61.24 0.7L57.74 0.7Q56.84 0.7 56.34-0.4 55.84-1.5 55.89-2.95L55.89-2.95Q55.94-4.65 56.19-7 56.44-9.35 56.69-11.65L56.69-11.65 58.09-23.45Q58.39-25.7 58.24-27.45 58.09-29.2 57.84-30.55 57.59-31.9 57.59-32.85L57.59-32.85Q57.59-33.4 58.47-33.83 59.34-34.25 60.49-34.52 61.64-34.8 62.44-34.8L62.44-34.8Q63.29-34.8 63.94-33.58 64.59-32.35 64.59-30.75L64.59-30.75Q64.59-30.4 64.49-28.8 64.39-27.2 64.09-25.15L64.09-25.15 62.49-13.65Q61.99-10.05 61.79-6.48 61.59-2.9 61.24 0.7L61.24 0.7ZM73.49 0.7L69.99 0.7Q69.09 0.7 68.59-0.4 68.09-1.5 68.14-2.95L68.14-2.95Q68.19-4.65 68.44-7 68.69-9.35 68.94-11.65L68.94-11.65 70.34-23.45Q70.64-25.7 70.49-27.45 70.34-29.2 70.09-30.55 69.84-31.9 69.84-32.85L69.84-32.85Q69.84-33.4 70.72-33.83 71.59-34.25 72.74-34.52 73.89-34.8 74.69-34.8L74.69-34.8Q75.54-34.8 76.19-33.58 76.84-32.35 76.84-30.75L76.84-30.75Q76.84-30.4 76.74-28.8 76.64-27.2 76.34-25.15L76.34-25.15 74.74-13.65Q74.24-10.05 74.04-6.48 73.84-2.9 73.49 0.7L73.49 0.7ZM101.39 0.8L101.39 0.8Q100.98 0.8 99.76 0.53 98.53 0.25 97.01-0.23 95.48-0.7 94.19-1.2L94.19-1.2 97.23-5.25Q98.59-4.35 99.84-3.85 101.09-3.35 102.16-3.15 103.23-2.95 104.14-2.95L104.14-2.95Q105.84-2.95 107.14-4.33 108.44-5.7 109.19-8.15 109.94-10.6 109.94-13.7L109.94-13.7Q109.94-16.6 109.51-18.1 109.09-19.6 108.14-19.6L108.14-19.6Q107.69-19.6 106.64-18.88 105.59-18.15 104.14-16.38 102.69-14.6 100.96-11.55 99.23-8.5 97.39-3.85L97.39-3.85 95.89-8.3Q98.69-14.65 101.26-18.15 103.84-21.65 106.14-23.08 108.44-24.5 110.39-24.5L110.39-24.5Q113.19-24.5 114.39-22.15 115.59-19.8 115.59-15.85L115.59-15.85Q115.59-11 113.86-7.25 112.14-3.5 108.96-1.35 105.78 0.8 101.39 0.8ZM97.84-1.7L101.39 0.8Q98.34 0.8 96.26 0.25 94.19-0.3 93.21-1.25 92.23-2.2 92.34-3.4L92.34-3.4 95.84-34.8 99.34-34.8Q100.09-34.8 100.69-33.7 101.28-32.6 101.28-31.2L101.28-31.2Q101.28-29.5 101.06-28.1 100.84-26.7 100.34-24.5L100.34-24.5 96.84-9.45 97.84-1.7ZM125.83 0.8L125.83 0.8Q121.98 0.8 119.88-1.63 117.78-4.05 117.78-8.3L117.78-8.3Q117.78-11.85 118.78-14.8 119.78-17.75 121.58-19.95 123.38-22.15 125.81-23.35 128.23-24.55 131.08-24.55L131.08-24.55Q134.48-24.55 136.28-23.1 138.08-21.65 138.08-18.95L138.08-18.95Q138.08-16.2 136.26-14.15 134.43-12.1 131.01-10.65 127.58-9.2 122.83-8.2L122.83-8.2 122.18-11.2Q124.93-11.55 127.23-12.4 129.53-13.25 130.93-14.68 132.33-16.1 132.33-18.05L132.33-18.05Q132.33-19.4 131.81-20.1 131.28-20.8 129.93-20.8L129.93-20.8Q127.88-20.8 126.46-19.3 125.03-17.8 124.31-15.4 123.58-13 123.58-10.3L123.58-10.3Q123.58-6.65 124.71-5.43 125.83-4.2 128.03-4.2L128.03-4.2Q130.33-4.2 132.06-4.93 133.78-5.65 135.03-6.45L135.03-6.45Q135.43-6.7 135.73-6.85 136.03-7 136.23-7L136.23-7Q136.48-7 136.63-6.8 136.78-6.6 136.78-6.35L136.78-6.35Q136.78-5.45 135.98-4.25 135.18-3.05 133.71-1.9 132.23-0.75 130.23 0.03 128.23 0.8 125.83 0.8ZM147.18 0.8L147.18 0.8Q143.38 0.8 141.2-0.38 139.03-1.55 139.03-3.55L139.03-3.55Q139.03-4.45 139.31-5.23 139.58-6 140.13-6L140.13-6Q140.33-6 140.58-5.9 140.83-5.8 141.53-5.35L141.53-5.35Q142.53-4.7 143.75-4.15 144.98-3.6 146.25-3.28 147.53-2.95 148.63-2.95L148.63-2.95Q150.23-2.95 150.95-3.73 151.68-4.5 151.68-5.8L151.68-5.8Q151.68-6.75 151.1-7.38 150.53-8 149.28-8.8L149.28-8.8 146.18-10.8Q144.23-12.05 142.91-13.48 141.58-14.9 141.58-17.2L141.58-17.2Q141.58-20.45 144.08-22.48 146.58-24.5 151.13-24.5L151.13-24.5Q154.33-24.5 155.83-23.85 157.33-23.2 157.33-21.6L157.33-21.6Q157.33-20.35 156.95-19.5 156.58-18.65 155.93-18.65L155.93-18.65Q155.73-18.65 155.41-18.75 155.08-18.85 154.83-19L154.83-19Q154.43-19.25 153.58-19.7 152.73-20.15 151.68-20.53 150.63-20.9 149.48-20.9L149.48-20.9Q148.33-20.9 147.6-20.23 146.88-19.55 146.88-18.4L146.88-18.4Q146.88-17.45 147.48-16.8 148.08-16.15 149.48-15.45L149.48-15.45 152.73-13.95Q154.78-13 156.06-11.73 157.33-10.45 157.33-7.95L157.33-7.95Q157.33-5 155.91-3.05 154.48-1.1 152.16-0.15 149.83 0.8 147.18 0.8ZM165.63 0.8L165.63 0.8Q163.23 0.8 162.25-0.6 161.28-2 161.63-5L161.63-5 163.58-20.25 161.98-20.25Q161.23-20.25 161.23-21.05L161.23-21.05Q161.23-21.55 161.9-22.5 162.58-23.45 163.63-24.6 164.68-25.75 165.8-26.8 166.93-27.85 167.88-28.53 168.83-29.2 169.33-29.2L169.33-29.2Q169.88-29.2 170.08-28.78 170.28-28.35 170.18-27.7L170.18-27.7 169.73-23.75 175.33-23.75Q176.08-23.75 176.2-23.5 176.33-23.25 176.13-22.7L176.13-22.7Q175.53-21 175-20.63 174.48-20.25 173.08-20.25L173.08-20.25 169.08-20.25 167.83-9.55Q167.73-8.6 167.65-7.75 167.58-6.9 167.58-6.2L167.58-6.2Q167.58-5.05 168.13-4.58 168.68-4.1 169.93-4.1L169.93-4.1Q171.13-4.1 172-4.6 172.88-5.1 173.23-5.1L173.23-5.1Q173.63-5.1 173.63-4.6L173.63-4.6Q173.63-4.1 173.1-3.2 172.58-2.3 171.55-1.38 170.53-0.45 169.03 0.18 167.53 0.8 165.63 0.8ZM194.97 0.8L191.47 0.8Q190.62 0.8 190.37-0.18 190.12-1.15 190.12-2.2L190.12-2.2Q190.12-4 190.3-5.4 190.47-6.8 190.67-8.5L190.67-8.5 192.47-24.55 195.97-24.55Q196.97-24.55 197.27-23.45 197.57-22.35 197.57-20.95L197.57-20.95Q197.57-20.25 197.47-19.48 197.37-18.7 197.17-17.1L197.17-17.1 196.22-8.95Q195.92-6.35 195.67-4.6 195.42-2.85 195.27-1.6 195.12-0.35 194.97 0.8L194.97 0.8ZM195.87-27.4L195.87-27.4Q194.47-27.4 193.45-28.35 192.42-29.3 192.42-30.85L192.42-30.85Q192.42-32.7 193.62-33.73 194.82-34.75 196.37-34.75L196.37-34.75Q197.82-34.75 198.8-33.9 199.77-33.05 199.77-31.35L199.77-31.35Q199.77-29.65 198.62-28.53 197.47-27.4 195.87-27.4ZM221.32 0.5L217.77 0.5Q217.22 0.5 216.95-0.03 216.67-0.55 216.6-1.2 216.52-1.85 216.52-2.25L216.52-2.25Q216.52-2.95 216.62-4.05 216.72-5.15 216.87-6.38 217.02-7.6 217.17-8.5L217.17-8.5 218.02-13.7Q218.17-14.7 218.32-15.58 218.47-16.45 218.47-17.45L218.47-17.45Q218.47-18.2 218.17-18.6 217.87-19 217.37-19L217.37-19Q216.72-19 215.22-17.75 213.72-16.5 212.02-14.18 210.32-11.85 208.95-8.6 207.57-5.35 207.17-1.35L207.17-1.35 205.87-8.75Q207.37-13.1 209.25-16.1 211.12-19.1 213.07-20.95 215.02-22.8 216.85-23.65 218.67-24.5 220.07-24.5L220.07-24.5Q221.57-24.5 222.5-23.95 223.42-23.4 223.85-22.43 224.27-21.45 224.27-20.15L224.27-20.15Q224.27-18.9 224.1-17.68 223.92-16.45 223.72-15.15L223.72-15.15 221.32 0.5ZM202.82 0.7L202.82 0.7Q202.17 0.7 201.85 0.48 201.52 0.25 201.5-0.7 201.47-1.65 201.72-3.75L201.72-3.75 204.07-24.55 207.57-24.55Q208.32-24.55 208.92-23.45 209.52-22.35 209.52-20.95L209.52-20.95Q209.52-20.3 209.15-18.93 208.77-17.55 208.27-16.03 207.77-14.5 207.37-13.35L207.37-13.35 206.07-9.25 207.92-9.55 207.12-1.35Q207.07-0.85 206.52-0.45 205.97-0.05 205.22 0.2 204.47 0.45 203.8 0.58 203.12 0.7 202.82 0.7ZM245.17 0.8L245.17 0.8Q242.77 0.8 241.79-0.6 240.82-2 241.17-5L241.17-5 243.12-20.25 241.52-20.25Q240.77-20.25 240.77-21.05L240.77-21.05Q240.77-21.55 241.44-22.5 242.12-23.45 243.17-24.6 244.22-25.75 245.34-26.8 246.47-27.85 247.42-28.53 248.37-29.2 248.87-29.2L248.87-29.2Q249.42-29.2 249.62-28.78 249.82-28.35 249.72-27.7L249.72-27.7 249.27-23.75 254.87-23.75Q255.62-23.75 255.74-23.5 255.87-23.25 255.67-22.7L255.67-22.7Q255.07-21 254.54-20.63 254.02-20.25 252.62-20.25L252.62-20.25 248.62-20.25 247.37-9.55Q247.27-8.6 247.19-7.75 247.12-6.9 247.12-6.2L247.12-6.2Q247.12-5.05 247.67-4.58 248.22-4.1 249.47-4.1L249.47-4.1Q250.67-4.1 251.54-4.6 252.42-5.1 252.77-5.1L252.77-5.1Q253.17-5.1 253.17-4.6L253.17-4.6Q253.17-4.1 252.64-3.2 252.12-2.3 251.09-1.38 250.07-0.45 248.57 0.18 247.07 0.8 245.17 0.8ZM264.71 0.75L264.71 0.75Q260.41 0.75 258.04-1.78 255.66-4.3 255.66-9.2L255.66-9.2Q255.66-12.45 256.74-15.23 257.81-18 259.66-20.1 261.51-22.2 263.94-23.38 266.36-24.55 269.06-24.55L269.06-24.55Q273.36-24.55 275.64-22 277.91-19.45 277.91-14.3L277.91-14.3Q277.91-11.2 276.89-8.47 275.86-5.75 274.06-3.68 272.26-1.6 269.86-0.43 267.46 0.75 264.71 0.75ZM265.91-3L265.91-3Q267.81-3 269.19-4.4 270.56-5.8 271.29-8.25 272.01-10.7 272.01-13.75L272.01-13.75Q272.01-17 271.04-18.9 270.06-20.8 267.81-20.8L267.81-20.8Q265.96-20.8 264.54-19.4 263.11-18 262.34-15.58 261.56-13.15 261.56-10.05L261.56-10.05Q261.56-6.6 262.66-4.8 263.76-3 265.91-3ZM301.36 0.8L301.36 0.8Q299.06 0.8 297.81-0.85 296.56-2.5 296.56-5.25L296.56-5.25Q296.51-6.05 296.49-6.9 296.46-7.75 296.61-9.85L296.61-9.85 295.41-9.9 295.21-15.6Q295.16-16.4 294.99-17.43 294.81-18.45 294.56-19.38 294.31-20.3 294.06-20.8L294.06-20.8Q293.71-21.55 293.46-21.83 293.21-22.1 293.21-22.5L293.21-22.5Q293.21-22.9 293.76-23.25 294.31-23.6 295.16-23.9 296.01-24.2 296.91-24.38 297.81-24.55 298.51-24.55L298.51-24.55Q299.26-24.55 299.86-23.68 300.46-22.8 300.71-19.85L300.71-19.85 301.96-6.65Q302.06-5.55 302.41-4.88 302.76-4.2 303.31-4.2L303.31-4.2Q304.81-4.2 305.89-6 306.96-7.8 307.51-10.65 308.06-13.5 308.06-16.7L308.06-16.7Q308.06-18.75 307.54-19.75 307.01-20.75 307.01-21.4L307.01-21.4Q307.01-21.85 307.61-22.4 308.21-22.95 309.06-23.45 309.91-23.95 310.79-24.25 311.66-24.55 312.16-24.55L312.16-24.55Q312.86-24.55 313.41-24.13 313.96-23.7 313.96-22.25L313.96-22.25Q313.96-17.15 312.79-12.93 311.61-8.7 309.69-5.63 307.76-2.55 305.59-0.88 303.41 0.8 301.36 0.8ZM288.06 0.8L288.06 0.8Q285.46 0.8 284.34-1.15 283.21-3.1 282.81-6.9L282.81-6.9 281.91-16.55Q281.81-17.7 281.56-18.88 281.31-20.05 280.96-20.75L280.96-20.75Q280.61-21.45 280.36-21.73 280.11-22 280.11-22.4L280.11-22.4Q280.11-22.8 280.66-23.18 281.21-23.55 282.06-23.88 282.91-24.2 283.81-24.38 284.71-24.55 285.41-24.55L285.41-24.55Q286.06-24.55 286.61-23.6 287.16-22.65 287.41-19.85L287.41-19.85 288.51-8.55Q288.71-6.55 289.11-5.38 289.51-4.2 290.41-4.2L290.41-4.2Q291.16-4.2 292.29-5.28 293.41-6.35 294.31-8.85 295.21-11.35 295.21-15.6L295.21-15.6 297.31-11.55Q296.81-6.8 295.31-4.1 293.81-1.4 291.86-0.3 289.91 0.8 288.06 0.8ZM336.46 0.5L332.91 0.5Q332.36 0.5 332.08-0.03 331.81-0.55 331.73-1.2 331.66-1.85 331.66-2.25L331.66-2.25Q331.66-2.95 331.76-4.05 331.86-5.15 332.01-6.38 332.16-7.6 332.31-8.5L332.31-8.5 333.16-13.7Q333.31-14.7 333.46-15.58 333.61-16.45 333.61-17.45L333.61-17.45Q333.61-18.2 333.31-18.6 333.01-19 332.51-19L332.51-19Q331.86-19 330.36-17.75 328.86-16.5 327.16-14.18 325.46-11.85 324.08-8.6 322.71-5.35 322.31-1.35L322.31-1.35 321.01-8.75Q322.51-13.1 324.38-16.1 326.26-19.1 328.21-20.95 330.16-22.8 331.98-23.65 333.81-24.5 335.21-24.5L335.21-24.5Q336.71-24.5 337.63-23.95 338.56-23.4 338.98-22.43 339.41-21.45 339.41-20.15L339.41-20.15Q339.41-18.9 339.23-17.68 339.06-16.45 338.86-15.15L338.86-15.15 336.46 0.5ZM317.96 0.7L317.96 0.7Q317.31 0.7 316.98 0.48 316.66 0.25 316.63-0.7 316.61-1.65 316.86-3.75L316.86-3.75 319.21-24.55 322.71-24.55Q323.46-24.55 324.06-23.45 324.66-22.35 324.66-20.95L324.66-20.95Q324.66-20.3 324.28-18.93 323.91-17.55 323.41-16.03 322.91-14.5 322.51-13.35L322.51-13.35 321.21-9.25 323.06-9.55 322.26-1.35Q322.21-0.85 321.66-0.45 321.11-0.05 320.36 0.2 319.61 0.45 318.93 0.58 318.26 0.7 317.96 0.7Z" opacity="1" transform="matrix(1,0,0,1,0,0)" fill="#ffffff" class="slogan-text-1" data-fill-palette-color="secondary" id="text-1"></path></svg></g></svg></g></svg></g></svg></g><g transform="matrix(1,0,0,1,122.56545402333042,0)"><svg viewBox="0 0 150.38909195333915 149.98782584078032" height="149.98782584078032" width="150.38909195333915"><g><svg xmlns="http://www.w3.org/2000/svg" xmlns:xlink="http://www.w3.org/1999/xlink" version="1.1" x="8" y="0" viewBox="2.6 0 44.79999999999999 50" style="enable-background:new 0 0 50 50;" xml:space="preserve" height="149.98782584078032" width="134.38909195333915" class="icon-icon-0" data-fill-palette-color="accent" id="icon-0"><g fill="#374151" data-fill-palette-color="accent"><rect x="36.1" y="24.6" width="6.8" height="4.6" fill="#ffffff" data-fill-palette-color="accent"></rect><rect x="36.1" y="39" width="6.8" height="4.6" fill="#ffffff" data-fill-palette-color="accent"></rect><path d="M31.5 18.2V50H47.4V18.2zM45.2 44.7C45.2 45.3 44.7 45.8 44.1 45.8H35C34.4 45.8 33.9 45.3 33.9 44.7V37.8C33.9 37.2 34.4 36.7 35 36.7H44C44.6 36.7 45.1 37.2 45.1 37.8V44.7zM45.2 30.3C45.2 30.9 44.7 31.4 44.1 31.4H35C34.4 31.4 33.9 30.9 33.9 30.3V23.4C33.9 22.8 34.4 22.3 35 22.3H44C44.6 22.3 45.1 22.8 45.1 23.4V30.3z" fill="#ffffff" data-fill-palette-color="accent"></path><rect x="8.3" y="23.7" width="4.1" height="5.5" fill="#ffffff" data-fill-palette-color="accent"></rect><rect x="19.4" y="23.7" width="4.1" height="5.5" fill="#ffffff" data-fill-palette-color="accent"></rect><rect x="10.1" y="38.6" width="11.5" height="11.4" fill="#ffffff" data-fill-palette-color="accent"></rect><path d="M2.6 50H7.9V37.5C7.9 36.9 8.4 36.4 9 36.4H22.8C23.4 36.4 23.9 36.9 23.9 37.5V50H29.2V0H2.6zM25.8 22.5V30.3C25.8 30.9 25.3 31.4 24.7 31.4H18.3C17.7 31.4 17.2 30.9 17.2 30.3V22.5C17.2 21.9 17.7 21.4 18.3 21.4H24.7C25.3 21.4 25.8 21.9 25.8 22.5M10.3 8.9H14V5.2H17.7V8.9H21.4V12.6H17.7V16.3H14V12.6H10.3zM6 22.5C6 21.9 6.5 21.4 7.1 21.4H13.5C14.1 21.4 14.6 21.9 14.6 22.5V30.3C14.6 30.9 14.1 31.4 13.5 31.4H7.1C6.5 31.5 6 31 6 30.3z" fill="#ffffff" data-fill-palette-color="accent"></path></g></svg></g></svg></g><g><rect width="103.00287357173825" height="6.043371022786313" y="142.94445481799403" x="272.9545459766696" fill="#ffffff" data-fill-palette-color="accent"></rect><rect width="103.00287357173825" height="6.043371022786313" y="142.94445481799403" x="19.56258045159217" fill="#ffffff" data-fill-palette-color="accent"></rect><rect width="103.00287357173825" height="6.043371022786313" y="130.8577127724214" x="272.9545459766696" fill="#ffffff" data-fill-palette-color="accent"></rect><rect width="103.00287357173825" height="6.043371022786313" y="130.8577127724214" x="19.56258045159217" fill="#ffffff" data-fill-palette-color="accent"></rect></g></svg></g><defs></defs></svg><rect width="356.39483909681564" height="247.2" fill="none" stroke="none" visibility="hidden"></rect></g></svg></g></svg>